<?xml version="1.0" encoding="utf-8"?>
<!-- Generator: Adobe Illustrator 25.0.0, SVG Export Plug-In . SVG Version: 6.00 Build 0)  -->
<svg version="1.1" id="Layer_1" xmlns="http://www.w3.org/2000/svg" xmlns:xlink="http://www.w3.org/1999/xlink" x="0px" y="0px"
	 viewBox="0 0 3008 1568" style="enable-background:new 0 0 3008 1568;" xml:space="preserve">
<style type="text/css">
	.st0{clip-path:url(#SVGID_2_);}
	.st1{fill:#F5F8FC;}
	.st2{fill:url(#SVGID_3_);}
	.st3{fill:url(#SVGID_4_);}
	.st4{fill:none;stroke:url(#SVGID_5_);stroke-width:2;}
	.st5{fill:none;stroke:url(#SVGID_6_);}
</style>
<g>
	<defs>
		<rect id="SVGID_1_" width="3008" height="1568"/>
	</defs>
	<clipPath id="SVGID_2_">
		<use xlink:href="#SVGID_1_"  style="overflow:visible;"/>
	</clipPath>
	<g class="st0">
		<rect class="st1" width="3008" height="1568"/>
		
			<linearGradient id="SVGID_3_" gradientUnits="userSpaceOnUse" x1="674.675" y1="1224.838" x2="1912.915" y2="907.16" gradientTransform="matrix(1 0 0 -1 0 1568)">
			<stop  offset="0" style="stop-color:#7579E7"/>
			<stop  offset="0.3986" style="stop-color:#9AB3F5"/>
			<stop  offset="0.8817" style="stop-color:#F5F8FC"/>
		</linearGradient>
		<path class="st2" d="M1384.2-64c206,0,569-224,676,10c-157,0-302.8,205.6-446,428s-480,185-626,225C842.2,639,872,784,674,916
			c-198,132-728,62-728,62L-266-54c0,0,1136.2-5,1269.2,20C1136.2-9,1178.2-64,1384.2-64z"/>
		
			<linearGradient id="SVGID_4_" gradientUnits="userSpaceOnUse" x1="2484.7104" y1="1432.6167" x2="2263.6003" y2="169.1083" gradientTransform="matrix(1 0 0 -1 0 1568)">
			<stop  offset="0.2318" style="stop-color:#0091FF"/>
			<stop  offset="0.9517" style="stop-color:#F5F8FC;stop-opacity:0"/>
		</linearGradient>
		<path class="st3" d="M1603.7,925.5c-367.6-168.4-736.5-51.7-858.5,18.5l-62,437l2570.8,17c1507.9-337,150-1288-370-1496
			c-214.6-180.3-581.2,176.2-659.9,255.5C1967.2,416.5,2063.1,1136,1603.7,925.5z"/>
		
			<linearGradient id="SVGID_5_" gradientUnits="userSpaceOnUse" x1="2281.5059" y1="1238.0608" x2="880.4817" y2="446.9118" gradientTransform="matrix(1 0 0 -1 0 1568)">
			<stop  offset="0.3335" style="stop-color:#32C5FF"/>
			<stop  offset="1" style="stop-color:#32C5FF;stop-opacity:0"/>
		</linearGradient>
		<path class="st4" d="M719.2,914.6c126.7-72.9,475.6-174.9,857.4,0C2049.2,1131,1959,400,2213.3,125s219.6-217.8,222.2-220.5"/>
		
			<linearGradient id="SVGID_6_" gradientUnits="userSpaceOnUse" x1="2307.1365" y1="1246.046" x2="933.4073" y2="505.5891" gradientTransform="matrix(1 0 0 -1 0 1568)">
			<stop  offset="0.55" style="stop-color:#0091FF"/>
			<stop  offset="1" style="stop-color:#0091FF;stop-opacity:0"/>
		</linearGradient>
		<path class="st5" d="M725.4,926.5c125.5-74.9,472.7-182.5,857.3-13.7c480.7,211,369-534.6,631.6-807.8L2381-64"/>
	</g>
</g>
</svg>
